<?xml version="1.0" encoding="UTF-8"?>
<svg id="Layer_1" xmlns="http://www.w3.org/2000/svg" xmlns:xlink="http://www.w3.org/1999/xlink" viewBox="0 0 534.51 791.5">
  <defs>
    <style>
      .cls-1 {
        fill: url(#linear-gradient-2);
      }

      .cls-2 {
        fill: url(#linear-gradient-4);
      }

      .cls-3 {
        fill: url(#linear-gradient-3);
      }

      .cls-4 {
        fill: url(#linear-gradient-5);
      }

      .cls-5 {
        fill: #fa9c3e;
      }

      .cls-6 {
        fill: url(#linear-gradient-6);
      }

      .cls-7 {
        fill: #a0a0a1;
      }

      .cls-8 {
        fill: #0d1319;
      }

      .cls-9 {
        fill: #272f39;
      }

      .cls-10 {
        fill: url(#linear-gradient);
      }

      .cls-11 {
        fill: #a65517;
      }

      .cls-12 {
        fill: #f3f3f3;
      }
    </style>
    <linearGradient id="linear-gradient" x1="466.94" y1="273.95" x2="538.31" y2="310.24" gradientTransform="translate(0 638.02) scale(1 -1)" gradientUnits="userSpaceOnUse">
      <stop offset="0" stop-color="#cc7022"/>
      <stop offset="1" stop-color="#fea140"/>
    </linearGradient>
    <linearGradient id="linear-gradient-2" x1="69.22" y1="268.27" x2="-5.71" y2="315.53" gradientTransform="translate(0 638.02) scale(1 -1)" gradientUnits="userSpaceOnUse">
      <stop offset="0" stop-color="#d37422"/>
      <stop offset="1" stop-color="#ffa544"/>
    </linearGradient>
    <linearGradient id="linear-gradient-3" x1="401.76" y1="4.13" x2="474.62" y2="30.03" gradientTransform="translate(0 638.02) scale(1 -1)" gradientUnits="userSpaceOnUse">
      <stop offset="0" stop-color="#ca7122"/>
      <stop offset="1" stop-color="#ffaf49"/>
    </linearGradient>
    <linearGradient id="linear-gradient-4" x1="138.22" y1="28.21" x2="97.46" y2="41.08" gradientTransform="translate(0 638.02) scale(1 -1)" gradientUnits="userSpaceOnUse">
      <stop offset="0" stop-color="#b9651d"/>
      <stop offset="1" stop-color="#ffa641"/>
    </linearGradient>
    <linearGradient id="linear-gradient-5" x1="270.89" y1="527.85" x2="263.36" y2="610.66" gradientTransform="translate(0 638.02) scale(1 -1)" gradientUnits="userSpaceOnUse">
      <stop offset="0" stop-color="#cf7728"/>
      <stop offset="1" stop-color="#ffae4c"/>
    </linearGradient>
    <linearGradient id="linear-gradient-6" x1="271.05" y1="1.39" x2="261.11" y2="110.62" gradientTransform="matrix(1,0,0,1,0,0)" xlink:href="#linear-gradient-5"/>
  </defs>
  <path class="cls-12" d="M261.54,149.47c4.41-.01,8.84-.11,13.24.15,5.29.46,10.66.38,15.97.63,7.71.37,15.4,1.02,23.1,1.42,9.1,1.3,18.24,2.03,27.31,3.62,44.05,7.71,85.13,24.03,117.4,55.7,14.37,16.02,24.86,31.15,31.87,51.72,1.69,4.95,2.87,10,4.35,15,4.06.57,8.06,1.53,11.77,3.33l2.1,1.1c8.23,4.66,16.26,13.24,18.96,22.49.03.09.05.19.07.29,2.64,4.69,3.68,11.14,4.51,16.41,3.29,20.78,3.5,43.96-2.26,64.33-3.47,12.29-9.87,23.03-21.29,29.35-4.11,2.27-8.43,3.47-12.97,4.55l-1.98.36c-8.19,31.66-32.65,58.81-60.42,75.18-17.77,10.48-37.07,17.12-57.25,21.1-4.1.81-8.45,1.82-12.61,2.16-4.39.17-8.83,1.03-13.19,1.6-6.46.83-12.94,1.56-19.42,2.21-19.14,1.7-38.34,2.6-57.55,2.72-23.96.19-47.92-.79-71.78-2.94-5.65-.49-11.31-.98-16.93-1.75-4.22-.58-8.55-1.52-12.8-1.71-.13,0-.26,0-.38-.01-6.33-1.67-12.93-2.53-19.33-3.97-13.98-3.2-27.57-7.95-40.49-14.16-36.13-17.78-58.93-42.17-71.92-80.39l-.51-.04-3.77-.89c-2.78-.6-5.8-1.77-8.39-2.97-10.67-4.96-17.51-15.13-21.35-25.93-7.85-22.09-7.85-68.67,2.55-89.96,4.5-9.22,12.12-17.03,21.95-20.35,2.97-1.02,5.93-1.71,9-2.32,1.8-5.45,2.95-11.07,4.89-16.52,6.61-18.51,17.96-35.7,31.67-49.74,47.04-48.15,118.51-60.81,183.14-61.49.96.01,1.79-.1,2.73-.26Z"/>
  <path class="cls-10" d="M494.79,277.72c4.06.57,8.06,1.53,11.77,3.33l2.1,1.1c8.23,4.66,16.26,13.24,18.96,22.49.03.09.05.19.07.29,2.64,4.69,3.68,11.14,4.51,16.41,3.29,20.78,3.5,43.96-2.26,64.33-3.47,12.29-9.87,23.03-21.29,29.35-4.11,2.27-8.43,3.47-12.97,4.55l-1.98.36c3.03-11.28,4.12-23.32,4.99-34.93,2.65-35.79,1.35-71.77-3.9-107.27Z"/>
  <path class="cls-5" d="M508.66,282.14c8.23,4.66,16.26,13.24,18.96,22.49.03.09.05.19.07.29-1.49-.47-2.36-2.48-3.5-3.57l-.69.27c-.47,1.5.56,2.4.13,3.83-.77.13-.5.16-1.2.02-.89-.17-1.64-.49-2.54-.19-1.21,2.43-.09,5.96-1.2,8.64-.78-.18-1.38-.43-2.01-.96-2.74-2.33-3.32-7.58-3.5-11.01-.27-5.11-2.91-8.75-4.6-13.4-.93-2.55-1.08-3.92.07-6.4Z"/>
  <path class="cls-1" d="M39.1,277.48c-7.41,42.25-8.18,100.56.52,142.47l-.51-.04-3.77-.89c-2.78-.6-5.8-1.77-8.39-2.97-10.67-4.96-17.51-15.13-21.35-25.93-7.85-22.09-7.85-68.67,2.55-89.96,4.5-9.22,12.12-17.03,21.95-20.35,2.97-1.02,5.93-1.71,9-2.32Z"/>
  <path class="cls-7" d="M251.36,224.91c2.85-.12,5.7-.17,8.54-.16,21.46-.19,42.91.7,64.28,2.67,34.99,3.3,73.79,8.99,99.83,35.03,22.4,22.4,30.51,54.51,30.54,85.33.03,30-7.14,59.05-29.09,80.85-25.66,25.48-63.21,33.15-97.81,37.06-14.74,1.67-29.8,2.75-44.64,2.76-53.04.36-131.04.15-172.54-37.94-21.27-19.52-30.02-47.34-31.16-75.44-1.29-32.06,5.57-64.67,28.01-88.88,22.84-24.64,55.01-32.57,87.02-36.86,18.95-2.54,37.93-3.66,57.03-4.43Z"/>
  <path class="cls-12" d="M249.94,230.2c.77-.03,1.54-.06,2.32-.08,38.54-.98,99.19,1.22,134.81,15.05,11.94,4.64,22.86,11.11,32.13,20.02,21.21,20.39,29.56,50.69,30.07,79.39.5,28.6-5.58,57.76-26.2,78.91-7.22,7.45-15.59,13.69-24.8,18.47-32,16.69-79.2,20.89-114.86,21.26-9.4.52-18.9.14-28.3.02-43.38-.55-104.22-5.2-138.66-34.46-19.97-16.96-29.34-41.42-31.37-67.01-2.47-31.06,2.63-64.86,23.56-89.2,21.23-24.69,51.04-33,82.01-37.52,12.9-1.81,25.86-3.14,38.86-4,6.81-.42,13.65-.38,20.45-.87Z"/>
  <path class="cls-9" d="M170.97,293.07c4.91-.48,9.87,1.14,13.88,3.94,8.13,5.67,12.42,16.25,14.05,25.69,2.19,12.75.37,27.52-7.35,38.21-4.44,6.14-10.24,9.6-17.69,10.75-5.38.06-10.32-1.2-14.76-4.37-7.85-5.6-12.04-15.73-13.48-24.98-2.03-13.01,0-27.74,7.98-38.53,4.41-5.97,10.03-9.61,17.38-10.72Z"/>
  <path class="cls-9" d="M359.9,293.08c4.66-.34,9.02.72,12.99,3.2,8.09,5.04,12.84,14.98,14.85,23.98,2.85,12.75,1.9,27.84-5.34,39.04-4.2,6.5-9.9,10.39-17.44,11.97-5.84.95-11.82-.47-16.61-3.95-7.67-5.5-11.62-15.71-12.97-24.74-1.98-13.24-.12-28.83,8.13-39.78,4.13-5.48,9.57-8.79,16.38-9.72Z"/>
  <path class="cls-9" d="M225.51,382.27c6.86-.64,11.6,5.88,17.6,8.41,7.69,3.25,15.69,4.54,24,4.56,7.52.02,15.15-1.2,22.13-4.07,4.39-1.81,14.08-9.26,17.39-9.16,2.05.06,4.35,1.43,5.69,2.91,1.52,1.68,2.12,3.86,1.95,6.1-.31,3.94-2.8,6.72-5.62,9.2-2.49,1.94-4.99,3.68-7.8,5.14-17.58,9.16-40.95,9.84-59.61,3.8-7.32-2.37-17.7-7.34-21.25-14.65-1.16-2.4-1.14-4.77-.17-7.23,1.12-2.84,3.03-3.85,5.69-5.02Z"/>
  <path class="cls-12" d="M171.36,518.47c.13,0,.26,0,.38.01,4.25.19,8.57,1.13,12.8,1.71,5.61.77,11.28,1.26,16.93,1.75,23.87,2.15,47.82,3.13,71.78,2.94,19.21-.11,38.41-1.02,57.55-2.72,6.48-.65,12.96-1.38,19.42-2.21,4.36-.57,8.81-1.43,13.19-1.6l-.11.54,2.06,1.02c5.7,2.82,10.78,7.37,15.29,11.78.82.11,1.69.3,2.51.3,25.2,2.84,50.71,26.36,66.03,45.6,13.93,17.49,25.91,37.03,35.87,57.02,8.12,17.94,19.31,43.56,11.96,63.02-3.04,8.03-9.17,14.52-17.02,18.01-8.12,3.63-17.1,3.71-25.36.43-15.91-6.31-25.5-22.44-33.69-36.57-1.38-1.77-2.77-3.97-3.73-6-1.49-1.86-2.69-5.24-4.57-6.52l-.48.19-.29,2.27c-.53,32.08-7.04,62.86-30.99,86.13-28.41,27.6-76.33,36.54-114.69,35.89-41.41-.7-87.31-8.37-117.22-39.67-21.13-22.1-27.44-52.21-28.16-81.8l-.5-.42c-3.76,4.23-5.26,10.56-8.99,14.84-.99,2.28-2.73,4.66-4.13,6.73-6.56,9.74-15.5,20.19-26.67,24.7-8.19,3.3-16.8,3.55-24.94-.03-7.45-3.2-13.3-9.26-16.22-16.83-7.57-19.64,4.54-46.89,12.6-65.16l.39-.87c2.33-3.76,4.19-7.98,6.18-11.93,2.65-4.43,4.95-9.06,7.61-13.48,12.39-20.55,27.41-41.67,46.49-56.54,11.12-9.43,23.56-15.32,37.58-18.99,1.12-.05,2.32-.3,3.44-.45,5.86-4.87,10.96-9.43,17.71-13.1Z"/>
  <path class="cls-3" d="M380.66,531.7c.82.11,1.69.3,2.51.3,25.2,2.84,50.71,26.36,66.03,45.6,13.93,17.49,25.91,37.03,35.87,57.02,8.12,17.94,19.31,43.56,11.96,63.02-3.04,8.03-9.17,14.52-17.02,18.01-8.12,3.63-17.1,3.71-25.36.43-15.91-6.31-25.5-22.44-33.69-36.57-1.38-1.77-2.77-3.97-3.73-6-1.49-1.86-2.69-5.24-4.57-6.52l-.48.19-.29,2.27c-.09-6.37.03-12.76-.27-19.13-.81-17.57-3.11-34.69-6.35-51.96-1.61-4.28-2.09-9.62-3.24-14.12-3.44-13.52-11.02-39.33-19.66-50.21l-1.71-2.35Z"/>
  <path class="cls-12" d="M485.07,634.62c8.12,17.94,19.31,43.56,11.96,63.02-3.04,8.03-9.17,14.52-17.02,18.01-8.12,3.63-17.1,3.71-25.36.43-15.91-6.31-25.5-22.44-33.69-36.57l-.18-.99c.29-.76.76-1.13,1.46-1.54,1.37-.8,2.98-1.23,4.39-1.99,4.63-2.48,9.18-5.17,13.7-7.84,15.89-9.41,32.02-18.99,44.75-32.53Z"/>
  <path class="cls-11" d="M405.26,598.37l.41-.46c2.45,3.04,1.9,12.54,2.96,16.41.4,1.44,1.61,1.42,1.47,3.09-.04.45-.12.67-.25,1.07-.37-.73-.42-1.15-.51-1.95-.04,4.18.64,2.84,1.29,5.54.36,1.48.19,3.49.31,5.05l.09-.21c.08,2.68-.13,5.3.24,7.97.15-.33.3-.66.45-.99.61.58.67.66.69,1.55.03,1.1-.21,2.28-.37,3.37l-.16.1-.15-1.99c.05,2.29-.13,4.97.37,7.19.98.79.96,1.06,1.11,2.28.82,6.84,1.26,13.56.55,20.42,1.12,1.75,3.55,4.69,3.47,6.7-1.49-1.86-2.69-5.24-4.57-6.52l-.48.19-.29,2.27c-.09-6.37.03-12.76-.27-19.13-.81-17.57-3.11-34.69-6.35-51.96Z"/>
  <path class="cls-12" d="M51.95,633.83c2.24,2.87,4.56,5.52,7.28,7.95,3.77,3.36,20.33,15.51,24.51,16.81,10.07,6.89,21.24,11.98,31.3,18.92-1.38,2.06-3.04,4.5-3.72,6.9-.99,2.28-2.73,4.66-4.13,6.73-6.56,9.74-15.5,20.19-26.67,24.7-8.19,3.3-16.8,3.55-24.94-.03-7.45-3.2-13.3-9.26-16.22-16.83-7.57-19.64,4.54-46.89,12.6-65.16Z"/>
  <path class="cls-5" d="M112.63,551c-.28.56-.55,1.12-.85,1.67.34,1.15,1.52,2.01,2.25,2.97,2.52,3.34,3.52,7.97,3.38,12.1-.23,6.4-25.53,85.18-28.49,90.53-.34.61-.53.64-1.1,1-1.21.05-1.53-.22-2.59-.63-.77-.3-.78-.21-1.49-.04-4.17-1.31-20.74-13.46-24.51-16.81-2.73-2.43-5.04-5.08-7.28-7.95l.39-.87c2.33-3.76,4.19-7.98,6.18-11.93,2.65-4.43,4.95-9.06,7.61-13.48,12.39-20.55,27.41-41.67,46.49-56.54Z"/>
  <path class="cls-2" d="M153.65,531.57l-1.13,1.73c-5.06,5.65-8.47,13.71-11.27,20.71-11.86,29.66-17.26,62.19-19.48,93.94-.5,7.22-1.07,14.56-.99,21.8,0,.08.01.16.02.24l-.5-.42c-3.76,4.23-5.26,10.56-8.99,14.84.68-2.4,2.34-4.84,3.72-6.9-10.06-6.95-21.23-12.03-31.3-18.92.71-.16.72-.26,1.49.04,1.06.41,1.38.68,2.59.63.57-.36.76-.39,1.1-1,2.96-5.34,28.27-84.12,28.49-90.53.15-4.13-.86-8.76-3.38-12.1-.72-.96-1.91-1.82-2.25-2.97.3-.55.57-1.11.85-1.67,11.12-9.43,23.56-15.32,37.58-18.99,1.12-.05,2.32-.3,3.44-.45Z"/>
  <path class="cls-7" d="M171.36,518.47c.13,0,.26,0,.38.01,4.25.19,8.57,1.13,12.8,1.71,5.61.77,11.28,1.26,16.93,1.75,23.87,2.15,47.82,3.13,71.78,2.94,19.21-.11,38.41-1.02,57.55-2.72,6.48-.65,12.96-1.38,19.42-2.21,4.36-.57,8.81-1.43,13.19-1.6l-.11.54,2.06,1.02c5.7,2.82,10.78,7.37,15.29,11.78l1.71,2.35c-.79-.24-1.22-.46-1.78-1.04-5.26-5.59-11.01-10.14-18.06-13.18-2.52.6-4.99,1.41-7.53,1.94-24.62,5.14-49.89,4.99-74.89,4.97-23.37-.05-46.74-.78-70.07-2.2-9.05-.59-18.24-1.81-27.23-3-3.48-.46-8.15-1.89-11.53-1.58-6,.55-13.22,10.1-18.41,13.17-.11.07-.22.13-.34.19l1.13-1.73c5.86-4.87,10.96-9.43,17.71-13.1Z"/>
  <path class="cls-4" d="M219.42,31.31h92.71c7.18,12.35,9.39,26.05,5.73,39.96-3.74,13.97-12.92,25.85-25.49,33-5.51,3.16-11.52,5.35-17.77,6.45-5.33.4-10.54.37-15.87.13-8.17-.63-16.48-4.63-23.32-8.89-9-6.42-16.19-15.52-19.73-26.03-3.55-10.52-4.16-23.74-.77-34.39,1.13-3.56,2.85-6.9,4.51-10.23Z"/>
  <path class="cls-9" d="M258.73,110.84c5.33.25,10.54.27,15.87-.13.02,12.73-.09,25.48.09,38.21l.1.7c-4.4-.26-8.83-.17-13.24-.15-.94.16-1.77.28-2.73.26.23-12.74.05-25.51.07-38.25l-.15-.63Z"/>
  <path class="cls-8" d="M258.73,110.84c5.33.25,10.54.27,15.87-.13.02,12.73-.09,25.48.09,38.21l.1.7c-4.4-.26-8.83-.17-13.24-.15l.36-.63c3.14-.97,8.27-.5,11.58-.32-.02-12.06.27-24.2-.22-36.26-4.93.13-9.5-.08-14.38-.78l-.15-.63Z"/>
  <circle class="cls-6" cx="266.13" cy="55.45" r="55.45"/>
</svg>
